<svg width="42" height="41" viewBox="0 0 42 41" fill="none" xmlns="http://www.w3.org/2000/svg">
<path d="M5.72727 0V5.72727H0V9.54545H5.72727V15.2727H9.54545V9.54545H15.2727V5.72727H9.54545V0H5.72727ZM19.0909 5.72727V9.54545H36.2727V13.3636H24.8182C22.7182 13.3636 21 15.0818 21 17.1818V28.6364C21 30.7364 22.7182 32.4545 24.8182 32.4545H36.2727V36.2727H9.54545V19.0909H5.72727V36.2727C5.72727 37.2854 6.12954 38.2565 6.84559 38.9726C7.56164 39.6886 8.53281 40.0909 9.54545 40.0909H36.2727C38.3727 40.0909 40.0909 38.3727 40.0909 36.2727V31.92C40.668 31.5868 41.1478 31.1085 41.4827 30.5324C41.8176 29.9564 41.996 29.3027 42 28.6364V17.1818C41.996 16.5155 41.8176 15.8618 41.4827 15.2858C41.1478 14.7097 40.668 14.2313 40.0909 13.8982V9.54545C40.0909 7.44545 38.3727 5.72727 36.2727 5.72727H19.0909ZM24.8182 17.1818H38.1818V28.6364H24.8182V17.1818ZM30.5455 20.0455C29.786 20.0455 29.0576 20.3472 28.5206 20.8842C27.9835 21.4212 27.6818 22.1496 27.6818 22.9091C27.6818 23.6686 27.9835 24.397 28.5206 24.934C29.0576 25.471 29.786 25.7727 30.5455 25.7727C31.3049 25.7727 32.0333 25.471 32.5703 24.934C33.1074 24.397 33.4091 23.6686 33.4091 22.9091C33.4091 22.1496 33.1074 21.4212 32.5703 20.8842C32.0333 20.3472 31.3049 20.0455 30.5455 20.0455Z" fill="#68EAFF"/>
</svg>
