<svg width="30" height="28" viewBox="0 0 30 28" fill="none" xmlns="http://www.w3.org/2000/svg">
<path d="M17.6193 13.9328C17.6193 11.8795 15.3959 10.5892 13.6267 11.6158C11.8577 12.6425 11.8577 15.2231 13.6267 16.2498C15.3959 17.2764 17.6193 15.9861 17.6193 13.9328ZM23.7136 9.00098C25.475 0.581648 21.6 -2.06046 15.0125 4.03387C8.81242 -1.77863 4.39726 0.0531906 6.27601 8.96571C-2.38766 11.5776 -1.81368 16.4942 6.3465 19.0056C4.47947 27.2136 7.96697 30.2079 15.0125 24.0078C21.8465 30.1374 25.4736 27.2675 23.6079 18.9704C32.5087 15.9525 31.7103 11.5843 23.7136 9.00098ZM22.5159 8.68393C21.1196 8.36893 19.7685 8.13966 18.3943 8.01456C17.6703 6.95594 16.827 5.89844 15.8579 4.9146C21.1394 -0.151419 24.2522 1.43149 22.5159 8.68393ZM8.88291 15.5532C9.40539 16.6687 10.0923 17.6903 10.609 18.5475C9.76767 18.4615 8.86134 18.3308 7.89648 18.16C8.20942 17.2851 8.53827 16.4161 8.88285 15.5532H8.88291ZM8.81242 12.5236C8.42804 11.601 8.07736 10.7106 7.79084 9.88159C8.78681 9.6751 9.76287 9.48766 10.609 9.42362C9.97925 10.4129 9.38107 11.4473 8.81242 12.5236ZM9.55216 14.0736C10.4136 12.3484 11.3249 10.7109 12.3351 9.24749C14.1277 9.14436 15.9013 9.1535 17.6545 9.2827C18.6378 10.6528 19.5555 12.2903 20.4375 14.0736C19.7775 15.4376 18.8403 17.0094 17.7602 18.6885C15.9568 18.825 14.1077 18.8061 12.2295 18.6885C11.2775 17.2301 10.3835 15.6939 9.55216 14.0736ZM21.1068 15.5532C21.4489 16.3833 21.765 17.2293 22.0579 18.0896C21.1733 18.2759 20.2797 18.417 19.3806 18.5123C19.9838 17.5778 20.556 16.5855 21.1068 15.5532ZM19.3806 9.42368C20.3411 9.5551 21.269 9.71928 22.1636 9.9168C21.8662 10.802 21.5253 11.6721 21.142 12.5236C20.5967 11.4482 20.0113 10.4132 19.3807 9.42362L19.3806 9.42368ZM16.6681 7.87364C15.571 7.83057 14.4549 7.83198 13.3215 7.87364C13.8177 7.22108 14.3707 6.53946 14.9772 5.83048C15.5683 6.46844 16.1283 7.15516 16.6681 7.87364ZM14.1317 4.91454C13.1627 5.89839 12.3194 6.92067 11.5954 7.97928C10.2212 8.10438 8.83486 8.33366 7.43857 8.6486C5.78283 1.28606 8.85027 -0.151536 14.1317 4.91454ZM6.66355 17.843C-0.675492 15.6354 -0.323227 12.1949 6.59306 10.1635C7.01617 11.4473 7.52834 12.7512 8.10789 14.0032C7.5448 15.2982 7.04623 16.6281 6.66355 17.843ZM7.57943 19.3226C8.82414 19.6279 10.1432 19.7744 11.525 19.9215C12.3563 21.0947 13.2173 22.1855 14.1318 23.1271C8.75371 28.2821 5.75564 26.4092 7.57943 19.3226V19.3226ZM14.9772 22.2465C14.3399 21.5865 13.7449 20.8387 13.1806 20.0272C14.4385 20.0536 15.6533 20.0566 16.8091 20.0272C16.2559 20.8125 15.6435 21.5544 14.9772 22.2465ZM15.8579 23.1271C16.8392 22.061 17.7042 20.9802 18.4647 19.8862C19.7628 19.7907 21.078 19.5913 22.4102 19.2874C24.2505 26.8304 20.909 27.9442 15.8579 23.1272V23.1271ZM23.2909 17.7726C22.9135 16.5576 22.437 15.2982 21.8818 14.0032C22.4469 12.7642 22.9409 11.494 23.3613 10.1987C30.1133 12.2419 30.6534 15.5063 23.2909 17.7726Z" fill="#68EAFF"/>
</svg>
