<svg width="42" height="41" viewBox="0 0 42 41" fill="none" xmlns="http://www.w3.org/2000/svg">
<g clip-path="url(#clip0_276_187)">
<path d="M21.1646 0.0698242C9.95728 0.0698242 0.879883 9.14722 0.879883 20.3545C0.879883 29.3305 6.68637 36.9119 14.7495 39.5996C15.7638 39.7771 16.1441 39.1686 16.1441 38.6361C16.1441 38.1543 16.1188 36.5569 16.1188 34.8581C11.0222 35.7962 9.70372 33.6156 9.29803 32.4746C9.06983 31.8914 8.08095 30.0912 7.21885 29.6094C6.50888 29.2291 5.49465 28.2909 7.19349 28.2655C8.79091 28.2402 9.93193 29.7362 10.3123 30.3447C12.1379 33.4128 15.0538 32.5507 16.2202 32.0182C16.3977 30.6997 16.9301 29.8123 17.5133 29.3051C13 28.798 8.2838 27.0485 8.2838 19.2896C8.2838 17.0836 9.06983 15.258 10.363 13.8381C10.1601 13.3309 9.45016 11.2518 10.5658 8.46261C10.5658 8.46261 12.2647 7.93014 16.1441 10.5418C17.7669 10.0854 19.4911 9.85719 21.2153 9.85719C22.9395 9.85719 24.6637 10.0854 26.2865 10.5418C30.1659 7.90479 31.8647 8.46261 31.8647 8.46261C32.9804 11.2518 32.2704 13.3309 32.0676 13.8381C33.3607 15.258 34.1468 17.0583 34.1468 19.2896C34.1468 27.0738 29.4052 28.798 24.8919 29.3051C25.6272 29.939 26.2611 31.1561 26.2611 33.0578C26.2611 35.7709 26.2357 37.9515 26.2357 38.6361C26.2357 39.1686 26.6161 39.8025 27.6303 39.5996C31.6574 38.2405 35.1568 35.6526 37.6358 32.2002C40.1148 28.7477 41.4486 24.6048 41.4493 20.3545C41.4493 9.14722 32.3719 0.0698242 21.1646 0.0698242Z" fill="#68EAFF"/>
</g>
<defs>
<clipPath id="clip0_276_187">
<rect width="40.5694" height="40.5694" fill="white" transform="translate(0.879883 0.0698242)"/>
</clipPath>
</defs>
</svg>
