<svg width="42" height="41" viewBox="0 0 42 41" fill="none" xmlns="http://www.w3.org/2000/svg">
<g clip-path="url(#clip0_276_183)">
<path d="M35.3062 34.5741H29.3058V25.1582C29.3058 22.9129 29.2588 20.0274 26.168 20.0274C23.039 20.0274 22.5623 22.4628 22.5623 24.9921V34.5728H16.5543V15.2123H22.3253V17.8531H22.4026C23.2089 16.328 25.1702 14.7242 28.0963 14.7242C34.183 14.7242 35.3126 18.7317 35.3126 23.9423V34.5728L35.3062 34.5741ZM9.76647 12.5664C9.30787 12.5666 8.85375 12.4763 8.43012 12.3007C8.00648 12.125 7.62165 11.8676 7.29767 11.543C6.97369 11.2184 6.71692 10.8331 6.54208 10.4092C6.36724 9.98523 6.27776 9.53095 6.27876 9.07235C6.27951 8.3821 6.48491 7.70757 6.869 7.13405C7.25308 6.56053 7.79859 6.11377 8.43657 5.85026C9.07454 5.58675 9.77632 5.51832 10.4532 5.65363C11.13 5.78894 11.7516 6.1219 12.2392 6.61042C12.7269 7.09895 13.0587 7.72109 13.1928 8.3982C13.3268 9.0753 13.2571 9.77696 12.9925 10.4145C12.7278 11.0519 12.2801 11.5966 11.7058 11.9797C11.1316 12.3627 10.4567 12.5669 9.76647 12.5664V12.5664ZM12.7762 34.5741H6.75545V15.2136H12.7762V34.5741ZM38.3185 0H3.73809C2.08615 0 0.746094 1.3071 0.746094 2.92481V37.646C0.746094 39.2637 2.08615 40.5708 3.73809 40.5708H38.3122C39.9616 40.5708 41.3156 39.2637 41.3156 37.646V2.92481C41.3156 1.3071 39.9616 0 38.3122 0H38.3185Z" fill="#68EAFF"/>
</g>
<defs>
<clipPath id="clip0_276_183">
<rect width="40.5695" height="40.5695" fill="white" transform="translate(0.746094)"/>
</clipPath>
</defs>
</svg>
