<svg width="41" height="42" viewBox="0 0 41 42" fill="none" xmlns="http://www.w3.org/2000/svg">
<path d="M38.0335 20.7193C38.0335 25.4101 37.2728 29.2135 36.2586 29.2135C35.2443 29.2135 34.4836 25.4101 34.4836 20.7193C34.4836 16.0284 35.2443 12.225 36.2586 12.225C37.2728 12.225 38.0335 16.0284 38.0335 20.7193ZM33.5962 20.7193C33.5962 25.9172 31.3141 30.2278 28.6518 30.2278C25.9894 30.2278 23.7074 25.9172 23.7074 20.7193C23.7074 15.5213 25.9894 11.2108 28.6518 11.2108C31.3141 11.2108 33.5962 15.5213 33.5962 20.7193ZM22.5663 20.7193C22.5663 26.2976 18.1291 30.8617 12.5508 30.8617C6.97244 30.8617 2.53516 26.2976 2.53516 20.7193C2.53516 15.141 6.97244 10.5769 12.5508 10.5769C18.1291 10.5769 22.5663 15.141 22.5663 20.7193Z" fill="#68EAFF"/>
</svg>
