<svg width="40" height="40" viewBox="0 0 40 40" fill="none" xmlns="http://www.w3.org/2000/svg">
<g clip-path="url(#clip0_645_15)">
<path d="M39.349 24.1667C39.349 24.2535 39.3403 24.3142 39.3229 24.349C38.2118 29.0017 35.8854 32.7734 32.3437 35.6641C28.8021 38.5547 24.6528 40 19.8958 40C17.3611 40 14.9089 39.5226 12.5391 38.5677C10.1693 37.6128 8.05556 36.25 6.19792 34.4792L2.83854 37.8385C2.50868 38.1684 2.11806 38.3333 1.66667 38.3333C1.21528 38.3333 0.824653 38.1684 0.494792 37.8385C0.164931 37.5087 0 37.1181 0 36.6667V25C0 24.5486 0.164931 24.158 0.494792 23.8281C0.824653 23.4983 1.21528 23.3333 1.66667 23.3333H13.3333C13.7847 23.3333 14.1753 23.4983 14.5052 23.8281C14.8351 24.158 15 24.5486 15 25C15 25.4514 14.8351 25.842 14.5052 26.1719L10.9375 29.7396C12.1701 30.8854 13.5677 31.7708 15.1302 32.3958C16.6927 33.0208 18.316 33.3333 20 33.3333C22.3264 33.3333 24.4965 32.7691 26.5104 31.6406C28.5243 30.5122 30.1389 28.9583 31.3542 26.9792C31.5451 26.684 32.0052 25.6684 32.7344 23.9323C32.8733 23.533 33.1337 23.3333 33.5156 23.3333H38.5156C38.7413 23.3333 38.9366 23.4158 39.1016 23.5807C39.2665 23.7457 39.349 23.941 39.349 24.1667ZM40 3.33333V15C40 15.4514 39.8351 15.842 39.5052 16.1719C39.1753 16.5017 38.7847 16.6667 38.3333 16.6667H26.6667C26.2153 16.6667 25.8247 16.5017 25.4948 16.1719C25.1649 15.842 25 15.4514 25 15C25 14.5486 25.1649 14.158 25.4948 13.8281L29.0885 10.2344C26.5191 7.8559 23.4896 6.66667 20 6.66667C17.6736 6.66667 15.5035 7.2309 13.4896 8.35937C11.4757 9.48785 9.86111 11.0417 8.64583 13.0208C8.45486 13.316 7.99479 14.3316 7.26562 16.0677C7.12674 16.467 6.86632 16.6667 6.48437 16.6667H1.30208C1.07639 16.6667 0.881076 16.5842 0.716146 16.4193C0.551215 16.2543 0.46875 16.059 0.46875 15.8333V15.651C1.59722 10.9983 3.94097 7.22656 7.5 4.33594C11.059 1.44531 15.2257 0 20 0C22.5347 0 25 0.481771 27.3958 1.44531C29.7917 2.40885 31.9184 3.76736 33.776 5.52083L37.1615 2.16146C37.4913 1.8316 37.8819 1.66667 38.3333 1.66667C38.7847 1.66667 39.1753 1.8316 39.5052 2.16146C39.8351 2.49132 40 2.88194 40 3.33333Z" fill="white"/>
</g>
<defs>
<clipPath id="clip0_645_15">
<rect width="40" height="40" fill="white"/>
</clipPath>
</defs>
</svg>
