<svg width="41" height="42" viewBox="0 0 41 42" fill="none" xmlns="http://www.w3.org/2000/svg">
<g clip-path="url(#clip0_276_181)">
<path d="M40.2581 9.04686C38.8466 9.6723 37.3303 10.0949 35.7363 10.2859C37.381 9.30175 38.6116 7.7528 39.1982 5.92808C37.6529 6.84594 35.9617 7.49202 34.198 7.83822C33.012 6.57189 31.4411 5.73254 29.7292 5.45049C28.0173 5.16845 26.2601 5.45948 24.7305 6.27841C23.201 7.09735 21.9845 8.39836 21.2701 9.97945C20.5557 11.5606 20.3833 13.3333 20.7797 15.0224C17.6485 14.8652 14.5854 14.0514 11.7892 12.6337C8.99292 11.2161 6.52599 9.22631 4.54849 6.79356C3.87233 7.95993 3.48354 9.31225 3.48354 10.7525C3.48279 12.049 3.80207 13.3257 4.41306 14.4692C5.02404 15.6127 5.90784 16.5878 6.98604 17.3078C5.73562 17.268 4.51278 16.9302 3.41931 16.3223V16.4237C3.41918 18.2422 4.04819 20.0046 5.1996 21.4121C6.35102 22.8195 7.95391 23.7853 9.73632 24.1455C8.57634 24.4594 7.36019 24.5056 6.17972 24.2807C6.68261 25.8454 7.66219 27.2136 8.98133 28.1938C10.3005 29.1741 11.8931 29.7173 13.5363 29.7474C10.7469 31.9372 7.30196 33.125 3.7557 33.1198C3.12751 33.12 2.49986 33.0833 1.87598 33.0099C5.47563 35.3244 9.66589 36.5527 13.9454 36.5479C28.4321 36.5479 36.3516 24.5495 36.3516 14.1434C36.3516 13.8053 36.3431 13.4639 36.3279 13.1258C37.8684 12.0118 39.1981 10.6323 40.2547 9.05193L40.2581 9.04686V9.04686Z" fill="#68EAFF"/>
</g>
<defs>
<clipPath id="clip0_276_181">
<rect width="40.5695" height="40.5695" fill="white" transform="translate(0.291992 0.701416)"/>
</clipPath>
</defs>
</svg>
