<svg width="42" height="40" viewBox="0 0 42 40" fill="none" xmlns="http://www.w3.org/2000/svg">
<path d="M4.42105 0C3.24852 0 2.124 0.465788 1.2949 1.2949C0.465788 2.124 0 3.24852 0 4.42105V35.3684C0 36.541 0.465788 37.6655 1.2949 38.4946C2.124 39.3237 3.24852 39.7895 4.42105 39.7895H35.3684C36.541 39.7895 37.6655 39.3237 38.4946 38.4946C39.3237 37.6655 39.7895 36.541 39.7895 35.3684V30.3284C40.4577 29.9427 41.0133 29.3888 41.4011 28.7217C41.7889 28.0547 41.9953 27.2979 42 26.5263V13.2632C41.9953 12.4916 41.7889 11.7347 41.4011 11.0677C41.0133 10.4007 40.4577 9.84681 39.7895 9.46105V4.42105C39.7895 3.24852 39.3237 2.124 38.4946 1.2949C37.6655 0.465788 36.541 0 35.3684 0H4.42105ZM4.42105 4.42105H35.3684V8.84211H22.1053C20.9327 8.84211 19.8082 9.30789 18.9791 10.137C18.15 10.9661 17.6842 12.0906 17.6842 13.2632V26.5263C17.6842 27.6989 18.15 28.8234 18.9791 29.6525C19.8082 30.4816 20.9327 30.9474 22.1053 30.9474H35.3684V35.3684H4.42105V4.42105ZM22.1053 13.2632H37.5789V26.5263H22.1053V13.2632ZM28.7368 16.5789C27.8574 16.5789 27.0141 16.9283 26.3922 17.5501C25.7704 18.172 25.4211 19.0153 25.4211 19.8947C25.4211 20.7741 25.7704 21.6175 26.3922 22.2394C27.0141 22.8612 27.8574 23.2105 28.7368 23.2105C29.6162 23.2105 30.4596 22.8612 31.0815 22.2394C31.7033 21.6175 32.0526 20.7741 32.0526 19.8947C32.0526 19.0153 31.7033 18.172 31.0815 17.5501C30.4596 16.9283 29.6162 16.5789 28.7368 16.5789Z" fill="#68EAFF"/>
</svg>
