<svg width="42" height="42" viewBox="0 0 42 42" fill="none" xmlns="http://www.w3.org/2000/svg">
<path d="M30.156 25.2C30.324 23.814 30.45 22.428 30.45 21C30.45 19.572 30.324 18.186 30.156 16.8H37.254C37.59 18.144 37.8 19.551 37.8 21C37.8 22.449 37.59 23.856 37.254 25.2M26.439 36.876C27.699 34.545 28.665 32.025 29.337 29.4H35.532C33.4975 32.9034 30.2696 35.5572 26.439 36.876ZM25.914 25.2H16.086C15.876 23.814 15.75 22.428 15.75 21C15.75 19.572 15.876 18.165 16.086 16.8H25.914C26.103 18.165 26.25 19.572 26.25 21C26.25 22.428 26.103 23.814 25.914 25.2ZM21 37.716C19.257 35.196 17.85 32.403 16.989 29.4H25.011C24.15 32.403 22.743 35.196 21 37.716ZM12.6 12.6H6.468C8.4816 9.08715 11.7071 6.42912 15.54 5.124C14.28 7.455 13.335 9.975 12.6 12.6ZM6.468 29.4H12.6C13.335 32.025 14.28 34.545 15.54 36.876C11.7151 35.5565 8.49418 32.9022 6.468 29.4ZM4.746 25.2C4.41 23.856 4.2 22.449 4.2 21C4.2 19.551 4.41 18.144 4.746 16.8H11.844C11.676 18.186 11.55 19.572 11.55 21C11.55 22.428 11.676 23.814 11.844 25.2M21 4.263C22.743 6.783 24.15 9.597 25.011 12.6H16.989C17.85 9.597 19.257 6.783 21 4.263ZM35.532 12.6H29.337C28.6797 9.99906 27.7065 7.48838 26.439 5.124C30.303 6.447 33.516 9.114 35.532 12.6ZM21 0C9.387 0 0 9.45 0 21C0 26.5695 2.21249 31.911 6.15076 35.8492C8.10079 37.7993 10.4158 39.3461 12.9636 40.4015C15.5115 41.4568 18.2422 42 21 42C26.5695 42 31.911 39.7875 35.8492 35.8492C39.7875 31.911 42 26.5695 42 21C42 18.2422 41.4568 15.5115 40.4015 12.9636C39.3461 10.4158 37.7993 8.10079 35.8492 6.15076C33.8992 4.20073 31.5842 2.65388 29.0364 1.59853C26.4885 0.543181 23.7578 0 21 0Z" fill="#68EAFF"/>
</svg>
