<svg width="40" height="40" viewBox="0 0 40 40" fill="none" xmlns="http://www.w3.org/2000/svg">
<path d="M18.3335 11.6666C18.3335 11.2246 18.5091 10.8006 18.8216 10.4881C19.1342 10.1755 19.5581 9.99994 20.0001 9.99994H28.3334C28.7754 9.99994 29.1994 10.1755 29.5119 10.4881C29.8245 10.8006 30.0001 11.2246 30.0001 11.6666V19.9999C30.0001 20.4419 29.8245 20.8658 29.5119 21.1784C29.1994 21.4909 28.7754 21.6665 28.3334 21.6665C27.8914 21.6665 27.4675 21.4909 27.1549 21.1784C26.8423 20.8658 26.6667 20.4419 26.6667 19.9999V15.6899L17.8468 24.5132C17.6918 24.6681 17.5079 24.7911 17.3054 24.8749C17.103 24.9588 16.886 25.002 16.6668 25.002C16.4477 25.002 16.2307 24.9588 16.0282 24.8749C15.8257 24.7911 15.6418 24.6681 15.4868 24.5132C15.3319 24.3582 15.2089 24.1743 15.1251 23.9718C15.0412 23.7693 14.998 23.5523 14.998 23.3332C14.998 23.114 15.0412 22.897 15.1251 22.6946C15.2089 22.4921 15.3319 22.3082 15.4868 22.1532L24.3101 13.3333H20.0001C19.5581 13.3333 19.1342 13.1577 18.8216 12.8451C18.5091 12.5325 18.3335 12.1086 18.3335 11.6666ZM7.1102 5.63996C7.67274 3.99437 8.73584 2.56591 10.1506 1.55458C11.5654 0.543242 13.2611 -0.000318476 15.0002 1.39991e-07H31.6667C33.8768 1.39991e-07 35.9964 0.877968 37.5592 2.44076C39.122 4.00356 40 6.12316 40 8.33328V24.9998C40 28.6598 37.64 31.7665 34.36 32.8898V34.1031C34.36 35.2198 33.97 36.6464 33.0534 37.8231C32.0901 39.0631 30.5601 39.9998 28.4634 39.9998H9.23019C8.01546 40.0082 6.81118 39.7751 5.68733 39.314C4.56347 38.8529 3.54247 38.1731 2.68367 37.314C1.82486 36.4548 1.14538 35.4336 0.684711 34.3096C0.224044 33.1856 -0.00861975 31.9812 0.000244053 30.7665V11.5433C0.000244053 9.71327 0.656907 8.18995 1.82023 7.13329C2.95356 6.1033 4.43688 5.6433 5.89687 5.6433H7.1102V5.63996ZM6.66687 8.97328H5.90021C5.23035 8.94649 4.57448 9.16987 4.06022 9.59994C3.66689 9.95661 3.33356 10.5466 3.33356 11.5399V30.7698C3.33356 34.0798 5.92021 36.6698 9.23352 36.6698H28.4634C29.4601 36.6698 30.0434 36.2664 30.4234 35.7764C30.7905 35.2935 31 34.7093 31.0234 34.1031V33.3331H15.0002C12.79 33.3331 10.6704 32.4552 9.10763 30.8924C7.54484 29.3296 6.66687 27.21 6.66687 24.9998V8.97328ZM15.0002 3.33331C13.6741 3.33331 12.4023 3.86009 11.4646 4.79777C10.527 5.73545 10.0002 7.00721 10.0002 8.33328V24.9998C10.0002 26.3259 10.527 27.5977 11.4646 28.5354C12.4023 29.473 13.6741 29.9998 15.0002 29.9998H31.6667C32.9928 29.9998 34.2646 29.473 35.2022 28.5354C36.1399 27.5977 36.6667 26.3259 36.6667 24.9998V8.33328C36.6667 7.00721 36.1399 5.73545 35.2022 4.79777C34.2646 3.86009 32.9928 3.33331 31.6667 3.33331H15.0002Z" fill="#68eaff"/>
</svg>
